<svg width="24" height="24" viewBox="0 0 24 24" fill="none" xmlns="http://www.w3.org/2000/svg">
    <path d="M5 5H13V7H5V5Z" fill="#34404D"/>
    <path fill-rule="evenodd" clip-rule="evenodd" d="M17 20C18.6569 20 20 18.6569 20 17C20 15.3431 18.6569 14 17 14C15.3431 14 14 15.3431 14 17C14 18.6569 15.3431 20 17 20ZM17 22C19.7614 22 22 19.7614 22 17C22 14.2386 19.7614 12 17 12C14.2386 12 12 14.2386 12 17C12 19.7614 14.2386 22 17 22Z" fill="#34404D"/>
    <path fill-rule="evenodd" clip-rule="evenodd" d="M19.2929 19.2929C19.6834 18.9024 20.3166 18.9024 20.7071 19.2929L23.7071 22.2929C24.0976 22.6834 24.0976 23.3166 23.7071 23.7071C23.3166 24.0976 22.6834 24.0976 22.2929 23.7071L19.2929 20.7071C18.9024 20.3166 18.9024 19.6834 19.2929 19.2929Z" fill="#34404D"/>
    <path fill-rule="evenodd" clip-rule="evenodd" d="M16.3472 23.97C16.2345 23.9897 16.1184 24 16 24H2C0.89543 24 0 23.1046 0 22V20C0 16.61 2.10853 13.7125 5.08565 12.5474C3.80854 11.4471 3 9.81798 3 8V2C3 0.89543 3.89543 0 5 0H13C14.1046 0 15 0.895431 15 2V8C15 8.88114 14.8101 9.71791 14.4689 10.4716C12.7858 11.1246 11.418 12.4097 10.6569 14.0355C10.4411 14.0121 10.222 14 10 14H8C4.68629 14 2 16.6863 2 20L2 22H12.101C13.2179 23.0944 14.6998 23.8176 16.3472 23.97ZM13 2H5V8C5 10.2091 6.79086 12 9 12C11.2091 12 13 10.2091 13 8V2Z" fill="#34404D"/>
</svg>
