<svg width="64" height="64" viewBox="0 0 64 64" fill="none" xmlns="http://www.w3.org/2000/svg">
<g clip-path="url(#clip0)">
<path d="M60.25 26.5763L50.1138 19.2419H13.8862L3.75 26.5763L13.8864 33.9107H50.1138L60.25 26.5763Z" fill="#9DAFC7"/>
<path d="M54.0487 1.25H9.95117V43.7446H54.0487V1.25Z" fill="white"/>
<path d="M3.75 26.5763V58.1565C3.75 60.6934 5.80663 62.75 8.3435 62.75H55.6565C58.1934 62.75 60.25 60.6934 60.25 58.1565V26.5763L32.469 49.367L3.75 26.5763Z" fill="#BAC5D2"/>
<path d="M3.89673 59.312C4.4091 61.2895 6.2056 62.75 8.34348 62.75H55.6565C57.7944 62.75 59.5909 61.2895 60.1032 59.312L34.6927 40.9255C33.0859 39.7628 30.9141 39.7628 29.3072 40.9255L3.89673 59.312Z" fill="#9DAFC7"/>
<path d="M32 25.25C37.2467 25.25 41.5 20.9967 41.5 15.75C41.5 10.5033 37.2467 6.25 32 6.25C26.7533 6.25 22.5 10.5033 22.5 15.75C22.5 20.9967 26.7533 25.25 32 25.25Z" fill="#2DAD70"/>
<path d="M22.9561 2.5C23.2849 2.5 23.6073 2.36625 23.8398 2.13375C24.0736 1.90125 24.2061 1.57875 24.2061 1.25C24.2061 0.92125 24.0736 0.59875 23.8398 0.36625C23.6073 0.13375 23.2849 0 22.9561 0C22.6273 0 22.3048 0.13375 22.0724 0.36625C21.8399 0.59875 21.7061 0.92125 21.7061 1.25C21.7061 1.57875 21.8398 1.90125 22.0724 2.13375C22.3048 2.36625 22.6274 2.5 22.9561 2.5Z" fill="#2C3847"/>
<path d="M61.4986 26.5761C61.4983 26.1891 61.3201 25.8078 60.9826 25.5636L55.2986 21.4509V1.25C55.2986 0.559625 54.7389 0 54.0486 0H27.9564C27.2661 0 26.7064 0.559625 26.7064 1.25C26.7064 1.94037 27.2661 2.5 27.9564 2.5H52.7986V31.0462L38.8786 42.4115L35.4254 39.9129C33.3763 38.4305 30.6234 38.4305 28.5743 39.9129L25.1211 42.4115L11.201 31.0461V2.5H17.9564C18.6466 2.5 19.2064 1.94037 19.2064 1.25C19.2064 0.559625 18.6466 0 17.9564 0H9.95101C9.26076 0 8.70101 0.559625 8.70101 1.25V21.4508L3.01701 25.5635C2.67963 25.8076 2.50151 26.1887 2.50101 26.5756C2.50063 26.5759 2.50026 26.576 2.49976 26.5763V58.1565C2.49988 61.3786 5.12126 64 8.34338 64H55.6564C58.8785 64 61.4999 61.3786 61.4999 58.1565V26.5763C61.4995 26.5763 61.4991 26.5761 61.4986 26.5761ZM55.2988 24.5366L58.2003 26.6361L55.2988 29.0051V24.5366ZM58.9999 29.2105V56.9706L40.9743 43.9279L58.9999 29.2105ZM4.99988 29.2105L23.0255 43.9279L4.99988 56.9707V29.2105ZM8.70101 29.005L5.79951 26.636L8.70101 24.5366V29.005ZM55.6564 61.5H8.34338C7.08038 61.5 5.97876 60.7959 5.41013 59.7596L30.0399 41.9383C31.2121 41.0899 32.7875 41.09 33.9598 41.9383L53.3766 55.9878H41.9874C41.2971 55.9878 40.7374 56.5475 40.7374 57.2378C40.7374 57.928 41.2971 58.4878 41.9874 58.4878H56.8318L58.5895 59.7596C58.021 60.7959 56.9195 61.5 55.6564 61.5Z" fill="#2C3847"/>
<path d="M30.5933 18.6699C30.8374 18.914 31.1573 19.036 31.4771 19.036C31.797 19.036 32.1169 18.9139 32.361 18.6699L36.4046 14.6263C36.8928 14.1382 36.8928 13.3467 36.4046 12.8585C35.9164 12.3704 35.1251 12.3704 34.6368 12.8585L31.4771 16.0183L30.3249 14.8661C29.8366 14.378 29.0451 14.378 28.557 14.8661C28.0689 15.3543 28.0689 16.1458 28.557 16.6339L30.5933 18.6699Z" fill="#2C3847"/>
<path d="M32 26.5C37.9276 26.5 42.75 21.6775 42.75 15.75C42.75 9.8225 37.9276 5 32 5C26.0724 5 21.25 9.8225 21.25 15.75C21.25 21.6775 26.0724 26.5 32 26.5ZM32 7.5C36.5491 7.5 40.25 11.2009 40.25 15.75C40.25 20.2991 36.5491 24 32 24C27.4509 24 23.75 20.2991 23.75 15.75C23.75 11.2009 27.4509 7.5 32 7.5Z" fill="#2C3847"/>
<path d="M37.0135 55.9873C36.6848 55.9873 36.3636 56.1211 36.1299 56.3537C35.8974 56.5861 35.7649 56.9086 35.7649 57.2373C35.7649 57.5662 35.8974 57.8886 36.1299 58.1211C36.3636 58.3548 36.6848 58.4873 37.0135 58.4873C37.3436 58.4873 37.6648 58.3548 37.8985 58.1211C38.131 57.8886 38.2649 57.5662 38.2649 57.2373C38.2649 56.9086 38.1311 56.5861 37.8985 56.3537C37.6648 56.1212 37.3436 55.9873 37.0135 55.9873Z" fill="#2C3847"/>
<path d="M22.468 33.2659H41.4998C42.19 33.2659 42.7498 32.7061 42.7498 32.0159C42.7498 31.3255 42.19 30.7659 41.4998 30.7659H22.468C21.7778 30.7659 21.218 31.3255 21.218 32.0159C21.218 32.7061 21.7778 33.2659 22.468 33.2659Z" fill="#2C3847"/>
</g>
<defs>
<clipPath id="clip0">
<rect width="64" height="64" fill="white"/>
</clipPath>
</defs>
</svg>
