<svg width="64" height="64" viewBox="0 0 64 64" fill="none" xmlns="http://www.w3.org/2000/svg">
<path d="M32 51C31.737 51 31.479 51.1069 31.293 51.293C31.107 51.4791 31 51.737 31 52C31 52.263 31.1069 52.521 31.293 52.7069C31.479 52.8929 31.737 53 32 53C32.263 53 32.521 52.893 32.7069 52.7069C32.893 52.521 33 52.263 33 52C33 51.737 32.893 51.479 32.7069 51.293C32.521 51.1069 32.263 51 32 51Z" fill="#D9DDE0"/>
<path d="M36.9572 13C37.5331 13 38 12.5523 38 12C38 11.4477 37.5331 11 36.9572 11H27.0428C26.4669 11 26 11.4477 26 12C26 12.5523 26.4669 13 27.0428 13H36.9572Z" fill="#D9DDE0"/>
<path d="M56.0234 14.8125H49.7734V11.8828C49.7734 9.19043 47.583 7 44.8906 7H19.1094C16.417 7 14.2266 9.19043 14.2266 11.8828V15.5907C14.2266 16.1301 14.6639 16.5673 15.2031 16.5673C15.7424 16.5673 16.1797 16.1301 16.1797 15.5907V11.8828C16.1797 10.2674 17.4939 8.95312 19.1094 8.95312H44.8906C46.5061 8.95312 47.8203 10.2674 47.8203 11.8828V14.8125H19.8906C19.3514 14.8125 18.9141 15.2497 18.9141 15.7891V27.1111H16.1797V24.3798C16.1797 23.8404 15.7424 23.4032 15.2031 23.4032C14.6639 23.4032 14.2266 23.8404 14.2266 24.3798V27.1111H7.97656C7.4373 27.1111 7 27.5483 7 28.0877V40.5877C7 41.127 7.4373 41.5643 7.97656 41.5643H14.2266V52.1172C14.2266 54.8096 16.417 57 19.1094 57H44.8906C47.583 57 49.7734 54.8096 49.7734 52.1172V29.2656H56.0234C56.5627 29.2656 57 28.8284 57 28.2891V15.7891C57 15.2497 56.5627 14.8125 56.0234 14.8125ZM20.8672 16.7656H33.1719V28.2891C33.1719 28.8284 33.6092 29.2656 34.1484 29.2656H39.9938L43.1328 32.4046V47.2344H20.8672V44.7031L24.0062 41.5642H29.8516C30.3908 41.5642 30.8281 41.1269 30.8281 40.5876V28.0876C30.8281 27.5482 30.3908 27.111 29.8516 27.111H20.8672V16.7656ZM8.95312 29.0643H28.875V39.6111H23.6016C23.3426 39.6111 23.0942 39.7141 22.911 39.8972L20.8672 41.9409V40.5877C20.8672 40.0484 20.4299 39.6111 19.8906 39.6111H8.95312V29.0643ZM47.8203 52.1172C47.8203 53.7326 46.5061 55.0469 44.8906 55.0469H19.1094C17.4939 55.0469 16.1797 53.7326 16.1797 52.1172V41.5643H18.9141V48.2109C18.9141 48.7502 19.3514 49.1875 19.8906 49.1875H44.1094C44.6486 49.1875 45.0859 48.7502 45.0859 48.2109V29.2656H47.8203V52.1172ZM55.0469 27.3125H44.1094C43.5701 27.3125 43.1328 27.7497 43.1328 28.2891V29.6424L41.089 27.5985C40.9058 27.4154 40.6574 27.3125 40.3984 27.3125H35.125V16.7656H55.0469V27.3125Z" fill="#D9DDE0"/>
<path d="M40 21C39.737 21 39.479 21.107 39.293 21.293C39.107 21.479 39 21.737 39 22C39 22.263 39.1069 22.521 39.293 22.707C39.4791 22.893 39.737 23 40 23C40.263 23 40.521 22.893 40.7069 22.707C40.8929 22.521 41 22.263 41 22C41 21.737 40.893 21.479 40.7069 21.293C40.521 21.107 40.263 21 40 21Z" fill="#D9DDE0"/>
<path d="M45 21C44.737 21 44.479 21.107 44.293 21.293C44.107 21.479 44 21.737 44 22C44 22.263 44.1069 22.521 44.293 22.707C44.4791 22.893 44.737 23 45 23C45.263 23 45.521 22.893 45.7069 22.707C45.8929 22.521 46 22.263 46 22C46 21.737 45.893 21.479 45.7069 21.293C45.521 21.107 45.263 21 45 21Z" fill="#D9DDE0"/>
<path d="M49.293 22.707C49.479 22.893 49.737 23 50 23C50.263 23 50.521 22.893 50.7069 22.707C50.8929 22.521 51 22.263 51 22C51 21.737 50.893 21.479 50.7069 21.293C50.521 21.107 50.263 21 50 21C49.737 21 49.479 21.107 49.293 21.293C49.107 21.479 49 21.737 49 22C49 22.263 49.1069 22.521 49.293 22.707Z" fill="#D9DDE0"/>
<path d="M24 35C24.263 35 24.521 34.8931 24.7069 34.707C24.8929 34.521 25 34.263 25 34C25 33.736 24.893 33.479 24.7069 33.2931C24.521 33.1071 24.263 33 24 33C23.737 33 23.479 33.107 23.293 33.2931C23.107 33.479 23 33.7361 23 34C23 34.263 23.1069 34.521 23.293 34.707C23.4791 34.893 23.737 35 24 35Z" fill="#D9DDE0"/>
<path d="M19 35C19.263 35 19.521 34.8931 19.7069 34.707C19.8929 34.52 20 34.263 20 34C20 33.737 19.893 33.479 19.7069 33.2931C19.521 33.1071 19.263 33 19 33C18.737 33 18.479 33.107 18.293 33.2931C18.107 33.479 18 33.7361 18 34C18 34.263 18.1069 34.521 18.293 34.707C18.4791 34.893 18.737 35 19 35Z" fill="#D9DDE0"/>
<path d="M14 33C13.737 33 13.479 33.1061 13.293 33.2931C13.107 33.479 13 33.737 13 34C13 34.263 13.1069 34.52 13.293 34.707C13.479 34.893 13.737 35 14 35C14.263 35 14.521 34.8931 14.7069 34.707C14.8929 34.521 15 34.263 15 34C15 33.737 14.893 33.479 14.7069 33.2931C14.521 33.1061 14.263 33 14 33Z" fill="#D9DDE0"/>
<path d="M15 21C15.263 21 15.521 20.893 15.7069 20.707C15.8929 20.521 16 20.263 16 20C16 19.737 15.893 19.479 15.7069 19.293C15.521 19.107 15.263 19 15 19C14.737 19 14.479 19.107 14.293 19.293C14.107 19.479 14 19.736 14 20C14 20.263 14.1069 20.521 14.293 20.707C14.479 20.893 14.737 21 15 21Z" fill="#D9DDE0"/>
</svg>
