<svg width="30" height="12" viewBox="0 0 30 12" fill="none" xmlns="http://www.w3.org/2000/svg">
<path d="M5.93107 11.3961C6.89478 10.4324 7.99175 9.63684 9.18477 9.03648C9.77402 8.74696 10.1767 8.06933 10.1694 7.52574L10.6032 4.41978C13.7515 3.46287 16.2797 3.46247 19.3976 4.41892L19.8246 7.43945C19.8241 8.11282 20.1948 8.72515 20.8007 9.04152C21.9997 9.64533 23.0967 10.4399 24.0608 11.4041C24.7573 12.1006 25.8905 12.1006 26.5869 11.4041L29.4777 8.51343C30.1741 7.81699 30.1741 6.68374 29.4777 5.98729C21.4946 -1.99579 8.50542 -1.99575 0.522334 5.98733C-0.174111 6.68378 -0.174112 7.81703 0.522333 8.51347L3.40497 11.3961C4.10142 12.0925 5.23467 12.0925 5.93107 11.3961Z" fill="white"/>
</svg>
