<svg width="25" height="32" viewBox="0 0 25 32" fill="none" xmlns="http://www.w3.org/2000/svg">
<path d="M25 8L17 0H2C0.89543 0 0 0.895431 0 2V30C0 31.1046 0.895431 32 2 32H23C24.1046 32 25 31.1046 25 30V8Z" fill="#F4F8FD"/>
<path opacity="0.5" d="M17 0V8H25L17 0Z" fill="#B9C2CC"/>
<path d="M3.12988 17.9248C3.12988 19.2725 4.07227 20.1465 5.5127 20.1465C7.02148 20.1465 7.91992 19.292 7.91992 17.793V12.9541H6.44531V17.7832C6.44531 18.4912 6.11328 18.8721 5.49805 18.8721C4.94141 18.8721 4.57031 18.4961 4.56055 17.9248H3.12988ZM9.15039 12.9541V20H10.625V17.7783H11.9434C13.4277 17.7783 14.458 16.8115 14.458 15.3662C14.458 13.916 13.4619 12.9541 12.0166 12.9541H9.15039ZM10.625 14.1211H11.626C12.4707 14.1211 12.959 14.5703 12.959 15.3711C12.959 16.1768 12.4658 16.626 11.6211 16.626H10.625V14.1211ZM21.6309 17.041V16.2451H18.6621V17.3193H20.1953L20.1904 17.4316C20.1611 18.3057 19.4922 18.8965 18.5303 18.8965C17.3584 18.8965 16.6162 17.9639 16.6162 16.4355C16.6162 14.9365 17.3145 14.0527 18.4766 14.0527C19.2725 14.0527 19.873 14.4922 20.0879 15.2295H21.5674C21.3574 13.8037 20.1172 12.832 18.4717 12.832C16.4014 12.832 15.1123 14.1992 15.1123 16.4551C15.1123 18.7451 16.4014 20.1221 18.5059 20.1221C20.4688 20.1221 21.6309 18.96 21.6309 17.041Z" fill="#B9C2CC"/>
</svg>
