<svg width="200" height="44" viewBox="0 0 200 44" fill="none" xmlns="http://www.w3.org/2000/svg">
<g clip-path="url(#clip0)">
<path d="M6.97808 1.87948C7.03594 1.41081 7.3831 1 8.03114 1H8.96848C9.43714 1 9.78431 1.23144 9.96367 1.58439L22.826 29.1838C22.9417 29.1838 22.9417 29.1838 22.9996 29.1838L35.862 1.58439C36.0355 1.23144 36.3306 1 36.8572 1H37.7945C38.4367 1 38.7897 1.41081 38.8475 1.87948L45.7445 41.1724C45.9181 41.9883 45.4494 42.5148 44.6914 42.5148H39.3683C38.8418 42.5148 38.3731 42.0461 38.2574 41.6353L34.8089 19.4748C34.751 19.4748 34.6353 19.4748 34.6353 19.4748L24.3998 42.4569C24.2841 42.8099 23.9312 43.0992 23.4046 43.0992H22.3516C21.825 43.0992 21.53 42.8041 21.3564 42.4569L11.0109 19.4748C11.0109 19.4748 10.8952 19.4748 10.8374 19.4748L7.44675 41.6353C7.38889 42.0461 6.92022 42.5148 6.39369 42.5148H1.1284C0.370432 42.5148 -0.0982367 41.9883 0.017484 41.1724L6.97808 1.87948Z" fill="#531D8B"/>
<path d="M51.357 36.7866L53.4631 33.1588C53.9318 32.3372 54.927 32.3372 55.4535 32.748C55.7486 32.9215 60.4816 36.3758 64.283 36.3758C67.3207 36.3758 69.6061 34.3854 69.6061 31.8743C69.6061 28.8945 67.0892 26.8462 62.1827 24.8558C56.6859 22.634 51.1892 19.1276 51.1892 12.2249C51.1892 7.02326 55.0485 1 64.3466 1C70.312 1 74.8714 4.04345 76.0402 4.91714C76.6246 5.27009 76.7982 6.2595 76.3932 6.84389L74.1713 10.1766C73.7027 10.8768 72.829 11.3454 72.1231 10.8768C71.6544 10.5817 67.2107 7.65972 63.9937 7.65972C60.6609 7.65972 58.8499 9.88156 58.8499 11.7504C58.8499 14.4988 61.0139 16.3677 65.7526 18.3002C71.423 20.5799 77.9727 23.9706 77.9727 31.5155C77.9727 37.5388 72.7711 43.0934 64.526 43.0934C57.1604 43.0934 52.8324 39.6449 51.6637 38.534C51.1256 38.0133 50.8305 37.7239 51.357 36.7866Z" fill="#531D8B"/>
<path d="M85.4483 2.6953C85.4483 2.11091 85.9749 1.58438 86.5592 1.58438H91.9981C92.6404 1.58438 93.109 2.11091 93.109 2.6953V18.1903H112.174V2.6953C112.174 2.11091 112.643 1.58438 113.285 1.58438H118.666C119.25 1.58438 119.777 2.11091 119.777 2.6953V41.4039C119.777 41.9883 119.25 42.5148 118.666 42.5148H113.285C112.643 42.5148 112.174 41.9883 112.174 41.4039V25.2666H93.109V41.4039C93.109 41.9883 92.6404 42.5148 91.9981 42.5148H86.5592C85.9749 42.5148 85.4483 41.9883 85.4483 41.4039V2.6953Z" fill="#531D8B"/>
<path d="M130.417 2.6953C130.417 2.11091 130.886 1.58438 131.528 1.58438H155.326C155.968 1.58438 156.437 2.11091 156.437 2.6953V7.49192C156.437 8.07631 155.968 8.60284 155.326 8.60284H138.02V19.5963H152.462C153.047 19.5963 153.573 20.1228 153.573 20.7072V25.5038C153.573 26.0882 153.047 26.6148 152.462 26.6148H138.02V41.4096C138.02 41.994 137.494 42.5206 136.909 42.5206H131.528C130.886 42.5206 130.417 41.994 130.417 41.4096V2.6953Z" fill="#531D8B"/>
<path d="M158.879 42.3412L176.538 12.3233L184.488 26.447H174.646L171.683 31.6197H193.693L176.92 1.85058L153.585 42.3412H158.879Z" fill="#531D8B"/>
<path d="M200 42.3412L196.847 37.1685H168.721L165.568 42.3412H200Z" fill="#531D8B"/>
<path d="M176.538 12.3233L192.351 40.7038L198.745 40.2814L184.442 15.2047" fill="#531D8B"/>
</g>
<defs>
<clipPath id="clip0">
<rect width="200" height="44" fill="white"/>
</clipPath>
</defs>
</svg>
