<svg width="146" height="31" viewBox="0 0 146 31" fill="none" xmlns="http://www.w3.org/2000/svg">
<path d="M5.07497 0.63962C5.11705 0.29877 5.36953 0 5.84083 0H6.52253C6.86338 0 7.11586 0.168321 7.24631 0.42501L16.6007 20.4973C16.6849 20.4973 16.6849 20.4973 16.727 20.4973L26.0814 0.42501C26.2077 0.168321 26.4223 0 26.8052 0H27.4869C27.954 0 28.2107 0.29877 28.2528 0.63962L33.2687 29.2163C33.395 29.8096 33.0541 30.1926 32.5029 30.1926H28.6315C28.2486 30.1926 27.9077 29.8517 27.8235 29.553L25.3156 13.4362C25.2735 13.4362 25.1893 13.4362 25.1893 13.4362L17.7453 30.1505C17.6612 30.4072 17.4045 30.6176 17.0215 30.6176H16.2557C15.8728 30.6176 15.6581 30.403 15.5319 30.1505L8.00796 13.4362C8.00796 13.4362 7.9238 13.4362 7.88172 13.4362L5.41582 29.553C5.37374 29.8517 5.03289 30.1926 4.64996 30.1926H0.820656C0.269405 30.1926 -0.0714449 29.8096 0.0127156 29.2163L5.07497 0.63962Z" fill="white"/>
<path d="M37.3506 26.0266L38.8823 23.3882C39.2231 22.7907 39.9469 22.7907 40.3298 23.0894C40.5444 23.2157 43.9866 25.7279 46.7513 25.7279C48.9605 25.7279 50.6227 24.2803 50.6227 22.454C50.6227 20.2869 48.7922 18.7972 45.2238 17.3497C41.2261 15.7338 37.2285 13.1837 37.2285 8.16357C37.2285 4.38055 40.0353 0 46.7976 0C51.136 0 54.452 2.21342 55.302 2.84883C55.727 3.10552 55.8532 3.82509 55.5587 4.2501L53.9428 6.67392C53.6019 7.1831 52.9665 7.52395 52.4531 7.1831C52.1123 6.96849 48.8805 4.84344 46.5409 4.84344C44.1171 4.84344 42.7999 6.45932 42.7999 7.81851C42.7999 9.81732 44.3737 11.1765 47.8201 12.582C51.944 14.24 56.7075 16.7059 56.7075 22.1931C56.7075 26.5737 52.9244 30.6134 46.928 30.6134C41.5712 30.6134 38.4236 28.1054 37.5736 27.2975C37.1822 26.9187 36.9676 26.7083 37.3506 26.0266Z" fill="white"/>
<path d="M62.1442 1.23295C62.1442 0.807937 62.5272 0.425007 62.9522 0.425007H66.9077C67.3748 0.425007 67.7157 0.807937 67.7157 1.23295V12.502H81.5811V1.23295C81.5811 0.807937 81.922 0.425007 82.389 0.425007H86.3025C86.7275 0.425007 87.1105 0.807937 87.1105 1.23295V29.3846C87.1105 29.8096 86.7275 30.1926 86.3025 30.1926H82.389C81.922 30.1926 81.5811 29.8096 81.5811 29.3846V17.6484H67.7157V29.3846C67.7157 29.8096 67.3748 30.1926 66.9077 30.1926H62.9522C62.5272 30.1926 62.1442 29.8096 62.1442 29.3846V1.23295Z" fill="white"/>
<path d="M94.849 1.23295C94.849 0.807937 95.1899 0.425007 95.657 0.425007H112.965C113.432 0.425007 113.772 0.807937 113.772 1.23295V4.7214C113.772 5.14641 113.432 5.52934 112.965 5.52934H100.378V13.5246H110.882C111.307 13.5246 111.69 13.9075 111.69 14.3325V17.821C111.69 18.246 111.307 18.6289 110.882 18.6289H100.378V29.3888C100.378 29.8138 99.9954 30.1968 99.5704 30.1968H95.657C95.1899 30.1968 94.849 29.8138 94.849 29.3888V1.23295Z" fill="white"/>
<path d="M115.548 30.0663L128.391 8.23513L134.173 18.5069H127.015L124.861 22.2689H140.868L128.669 0.618604L111.698 30.0663H115.548Z" fill="white"/>
<path d="M145.455 30.0663L143.161 26.3044H122.706L120.413 30.0663H145.455Z" fill="white"/>
<path d="M128.391 8.23513L139.892 28.8755L144.542 28.5683L134.139 10.3307" fill="white"/>
</svg>
