<svg width="64" height="64" viewBox="0 0 64 64" fill="none" xmlns="http://www.w3.org/2000/svg">
<path d="M7.8197 8.2699C8.11136 8.27023 8.39044 8.15113 8.59197 7.9403C9.59074 6.89339 10.6634 5.91951 11.8016 5.02617C12.1132 4.79504 12.2747 4.41297 12.2234 4.02842C12.1721 3.64388 11.9161 3.31751 11.5548 3.17614C11.1935 3.03477 10.784 3.1007 10.4853 3.3483C9.26633 4.30451 8.11744 5.34682 7.04744 6.46724C6.75293 6.77618 6.67094 7.23094 6.83902 7.62327C7.0071 8.01561 7.39288 8.26998 7.8197 8.2699Z" fill="#D9DDE0"/>
<path d="M0.70717 19.1372C1.26029 19.3358 1.86988 19.0496 2.07037 18.4972C3.02453 15.8334 4.35345 13.3193 6.01704 11.0305C6.36314 10.5533 6.25688 9.88594 5.7797 9.53984C5.30253 9.19374 4.63514 9.3 4.28904 9.77717C2.50788 12.2298 1.0849 14.9235 0.0629036 17.7772C-0.133224 18.3306 0.154727 18.9384 0.70717 19.1372Z" fill="#D9DDE0"/>
<path d="M4.76689 17.4783C4.53125 18.0185 4.77815 18.6475 5.31836 18.8831C5.85856 19.1187 6.48752 18.8718 6.72316 18.3316C8.30835 14.7146 10.7009 11.5088 13.7173 8.9599C14.022 8.71834 14.1711 8.33013 14.1064 7.94672C14.0418 7.56332 13.7736 7.24546 13.4066 7.11715C13.0396 6.98884 12.6318 7.07041 12.3424 7.33003C9.07562 10.0901 6.48425 13.5616 4.76689 17.4783Z" fill="#D9DDE0"/>
<path d="M55.4079 7.94031C55.8147 8.36682 56.4902 8.38282 56.9167 7.97604C57.3432 7.56926 57.3592 6.89375 56.9524 6.46724C55.8824 5.34683 54.7335 4.30451 53.5146 3.3483C53.2159 3.1007 52.8064 3.03477 52.4451 3.17614C52.0838 3.31751 51.8278 3.64388 51.7765 4.02843C51.7252 4.41297 51.8867 4.79505 52.1983 5.02617C53.3365 5.91951 54.4091 6.89339 55.4079 7.94031Z" fill="#D9DDE0"/>
<path d="M61.9296 18.4929C62.0494 18.863 62.3611 19.1385 62.743 19.2119C63.1249 19.2853 63.5165 19.1451 63.765 18.8459C64.0135 18.5467 64.0794 18.1359 63.9371 17.774C62.9151 14.9203 61.4921 12.2266 59.7109 9.774C59.3648 9.29682 58.6975 9.19057 58.2203 9.53666C57.7431 9.88276 57.6369 10.5502 57.983 11.0273C59.6464 13.3158 60.9753 15.8296 61.9296 18.4929Z" fill="#D9DDE0"/>
<path d="M57.28 18.3318C57.4325 18.6813 57.7597 18.9229 58.1386 18.9656C58.5175 19.0083 58.8903 18.8457 59.1167 18.5389C59.3432 18.2322 59.3887 17.828 59.2363 17.4785C57.5191 13.5632 54.9285 10.0929 51.663 7.33344C51.3724 7.08687 50.9723 7.01406 50.6135 7.14243C50.2547 7.2708 49.9916 7.58084 49.9234 7.95576C49.8552 8.33069 49.9921 8.71354 50.2827 8.9601C53.3003 11.5086 55.6939 14.7145 57.28 18.3318Z" fill="#D9DDE0"/>
<path d="M8.53332 29.8667V47.04C5.8481 47.5853 4.01292 50.0765 4.28829 52.8027C4.56366 55.5288 6.85997 57.6028 9.59999 57.6H24.6187C25.1459 61.2712 28.2911 63.997 32 63.997C35.7089 63.997 38.8541 61.2712 39.3813 57.6H54.4C57.14 57.6028 59.4363 55.5288 59.7117 52.8027C59.987 50.0765 58.1519 47.5853 55.4667 47.04V29.8667C55.4524 19.3772 48.4886 10.1671 38.4 7.29493V6.4C38.4 2.86538 35.5346 0 32 0C28.4654 0 25.6 2.86538 25.6 6.4V7.29493C15.5114 10.1671 8.54758 19.3772 8.53332 29.8667ZM32 61.8667C29.4665 61.8635 27.2836 60.0815 26.7733 57.6H37.2267C36.7163 60.0815 34.5334 61.8635 32 61.8667ZM27.7333 6.4C27.7333 4.04358 29.6436 2.13333 32 2.13333C34.3564 2.13333 36.2667 4.04358 36.2667 6.4V6.79573C33.4467 6.26809 30.5533 6.26809 27.7333 6.79573V6.4ZM32 8.53333C43.7765 8.54685 53.3198 18.0902 53.3333 29.8667V46.9333H48C47.4109 46.9333 46.9333 47.4109 46.9333 48C46.9333 48.5891 47.4109 49.0667 48 49.0667H54.4C56.1673 49.0667 57.6 50.4994 57.6 52.2667C57.6 54.034 56.1673 55.4667 54.4 55.4667H9.59999C7.83267 55.4667 6.39998 54.034 6.39998 52.2667C6.39998 50.4994 7.83267 49.0667 9.59999 49.0667H42.6667C43.2558 49.0667 43.7333 48.5891 43.7333 48C43.7333 47.4109 43.2558 46.9333 42.6667 46.9333H10.6667V29.8667C10.6802 18.0902 20.2235 8.54685 32 8.53333Z" fill="#D9DDE0"/>
</svg>
