<svg width="48" height="48" viewBox="0 0 48 48" fill="none" xmlns="http://www.w3.org/2000/svg">
<path d="M45.186 18.4438C44.436 17.5649 43.727 16.7343 43.4062 15.9624C43.0605 15.1289 42.9653 13.9995 42.8628 12.8042C42.6943 10.8149 42.5024 8.56053 40.9702 7.02978C39.4394 5.49756 37.185 5.30566 35.1972 5.13721C34.0004 5.03467 32.871 4.93945 32.0376 4.59375C31.2656 4.27295 30.435 3.56396 29.5561 2.81396C28.0107 1.4956 26.2602 0 24 0C21.7397 0 19.9892 1.4956 18.4438 2.81396C17.5649 3.56396 16.7343 4.27295 15.9624 4.59375C15.1289 4.93945 13.9995 5.03467 12.8042 5.13721C10.8149 5.30566 8.56053 5.49756 7.02978 7.02978C5.49756 8.56054 5.30566 10.8149 5.13721 12.8027C5.03467 13.9995 4.93945 15.1289 4.59375 15.9624C4.27295 16.7344 3.56396 17.5649 2.81396 18.4438C1.4956 19.9893 0 21.7397 0 24C0 26.2603 1.4956 28.0107 2.81396 29.5561C3.56396 30.4351 4.27295 31.2656 4.59375 32.0376C4.93945 32.8711 5.03467 34.0005 5.13721 35.1958C5.30566 37.185 5.49756 39.4394 7.02978 40.9702C8.56054 42.5024 10.8149 42.6943 12.8027 42.8628C13.9995 42.9653 15.1289 43.0605 15.9624 43.4062C16.7344 43.727 17.5649 44.436 18.4438 45.186C19.9893 46.5044 21.7397 48 24 48C26.2603 48 28.0107 46.5044 29.5561 45.186C30.4351 44.436 31.2656 43.727 32.0376 43.4062C32.8711 43.0605 34.0005 42.9653 35.1958 42.8628C37.185 42.6943 39.4394 42.5024 40.9702 40.9702C42.5024 39.4394 42.6943 37.185 42.8628 35.1972C42.9653 34.0004 43.0605 32.871 43.4062 32.0376C43.727 31.2656 44.436 30.435 45.186 29.5561C46.5044 28.0107 48 26.2602 48 24C48 21.7397 46.5044 19.9892 45.186 18.4438ZM42.9038 27.6079C42.0351 28.6259 41.1372 29.6777 40.6347 30.8891C40.1118 32.1533 39.9902 33.5713 39.8745 34.9423C39.7368 36.5625 39.6064 38.0932 38.8491 38.8491C38.0932 39.6064 36.5624 39.7353 34.9423 39.8745C33.5712 39.9902 32.1533 40.1118 30.8891 40.6347C29.6777 41.1372 28.6259 42.0351 27.6079 42.9038C26.3452 43.9819 25.1528 45 24 45C22.8471 45 21.6547 43.9819 20.392 42.9038C19.374 42.0351 18.3222 41.1372 17.1108 40.6347C15.8466 40.1118 14.4287 39.9902 13.0576 39.8745C11.4374 39.7368 9.9067 39.6064 9.15083 38.8491C8.3935 38.0932 8.2646 36.5625 8.12543 34.9423C8.00971 33.5713 7.88813 32.1533 7.36518 30.8891C6.86274 29.6777 5.96479 28.6259 5.09614 27.6079C4.01801 26.3452 2.99995 25.1528 2.99995 24C2.99995 22.8471 4.01801 21.6548 5.09614 20.392C5.96479 19.374 6.86274 18.3222 7.36518 17.1108C7.88813 15.8466 8.00971 14.4287 8.12543 13.0576C8.26313 11.4375 8.3935 9.90672 9.15083 9.15084C9.90668 8.39351 11.4374 8.26461 13.0576 8.12545C14.4287 8.00972 15.8466 7.88814 17.1108 7.36519C18.3222 6.86275 19.374 5.9648 20.392 5.09615C21.6547 4.01802 22.8471 2.99996 24 2.99996C25.1528 2.99996 26.3452 4.01802 27.6079 5.09615C28.6259 5.9648 29.6777 6.86275 30.8891 7.36519C32.1533 7.88814 33.5713 8.00972 34.9423 8.12545C36.5624 8.26314 38.0932 8.39351 38.8491 9.15084C39.6064 9.9067 39.7353 11.4375 39.8745 13.0576C39.9902 14.4287 40.1118 15.8467 40.6347 17.1108C41.1372 18.3222 42.0351 19.374 42.9038 20.392C43.9819 21.6547 45 22.8471 45 24C45 25.1528 43.9819 26.3452 42.9038 27.6079Z" fill="#B9C2CC"/>
<path d="M24 9C15.7295 9 9 15.7295 9 24H12C12 17.3833 17.3833 12 24 12V9Z" fill="#B9C2CC"/>
<path d="M24 36V39C32.2705 39 39 32.2705 39 24H36C36 30.6167 30.6167 36 24 36Z" fill="#B9C2CC"/>
</svg>
