<svg width="25" height="32" viewBox="0 0 25 32" fill="none" xmlns="http://www.w3.org/2000/svg">
<path d="M25 8L17 0H2C0.89543 0 0 0.895431 0 2V30C0 31.1046 0.895431 32 2 32H23C24.1046 32 25 31.1046 25 30V8Z" fill="#F4F8FD"/>
<path opacity="0.5" d="M17 0V8H25L17 0Z" fill="#B9C2CC"/>
<path d="M3.75 12.9541V20H5.22461V17.7783H6.54297C8.02734 17.7783 9.05762 16.8115 9.05762 15.3662C9.05762 13.916 8.06152 12.9541 6.61621 12.9541H3.75ZM5.22461 14.1211H6.22559C7.07031 14.1211 7.55859 14.5703 7.55859 15.3711C7.55859 16.1768 7.06543 16.626 6.2207 16.626H5.22461V14.1211ZM9.93164 12.9541V20H12.6221C14.7363 20 15.9814 18.6865 15.9814 16.4502C15.9814 14.2139 14.7363 12.9541 12.6221 12.9541H9.93164ZM11.4062 14.1699H12.4463C13.7451 14.1699 14.4775 14.9805 14.4775 16.4551C14.4775 17.9785 13.7646 18.7793 12.4463 18.7793H11.4062V14.1699ZM18.4082 20V17.2266H21.2744V16.0596H18.4082V14.1699H21.5479V12.9541H16.9336V20H18.4082Z" fill="#B9C2CC"/>
</svg>
