<svg width="25" height="32" viewBox="0 0 25 32" fill="none" xmlns="http://www.w3.org/2000/svg">
<path d="M25 8L17 0H2C0.89543 0 0 0.895431 0 2V30C0 31.1046 0.895431 32 2 32H23C24.1046 32 25 31.1046 25 30V8Z" fill="#F4F8FD"/>
<path opacity="0.5" d="M17 0V8H25L17 0Z" fill="#B9C2CC"/>
<path d="M2.7832 12.9541V20H4.25781V17.7783H5.57617C7.06055 17.7783 8.09082 16.8115 8.09082 15.3662C8.09082 13.916 7.09473 12.9541 5.64941 12.9541H2.7832ZM4.25781 14.1211H5.25879C6.10352 14.1211 6.5918 14.5703 6.5918 15.3711C6.5918 16.1768 6.09863 16.626 5.25391 16.626H4.25781V14.1211ZM10.376 20V15.3857H10.4199L13.7158 20H14.9365V12.9541H13.5254V17.5439H13.4863L10.1953 12.9541H8.96484V20H10.376ZM22.4121 17.041V16.2451H19.4434V17.3193H20.9766L20.9717 17.4316C20.9424 18.3057 20.2734 18.8965 19.3115 18.8965C18.1396 18.8965 17.3975 17.9639 17.3975 16.4355C17.3975 14.9365 18.0957 14.0527 19.2578 14.0527C20.0537 14.0527 20.6543 14.4922 20.8691 15.2295H22.3486C22.1387 13.8037 20.8984 12.832 19.2529 12.832C17.1826 12.832 15.8936 14.1992 15.8936 16.4551C15.8936 18.7451 17.1826 20.1221 19.2871 20.1221C21.25 20.1221 22.4121 18.96 22.4121 17.041Z" fill="#B9C2CC"/>
</svg>
