<svg width="24" height="24" viewBox="0 0 24 24" fill="none" xmlns="http://www.w3.org/2000/svg">
    <path d="M20.7 16.3507L21.7 15.3507C21.89 15.1507 21.89 14.8307 21.7 14.6307L20.42 13.3507C20.19 13.1307 19.85 13.1407 19.65 13.3507L18.65 14.3507L20.7 16.3507Z" fill="#34404D"/>
    <path d="M18.07 14.8807L12 20.9407V23.0007H14.06L20.12 16.8807L18.07 14.8807Z" fill="#34404D"/>
    <path fill-rule="evenodd" clip-rule="evenodd" d="M17 2C17 1.44772 16.5523 1 16 1C15.4477 1 15 1.44772 15 2V3H9V2C9 1.44772 8.55228 1 8 1C7.44772 1 7 1.44772 7 2V3H5C3.34315 3 2 4.34315 2 6V9V20C2 21.6569 3.34315 23 5 23H10V21H5C4.44772 21 4 20.5523 4 20V10H20V11H22V9V6C22 4.34315 20.6569 3 19 3H17V2ZM20 6C20 5.44772 19.5523 5 19 5H17V6C17 6.55228 16.5523 7 16 7C15.4477 7 15 6.55228 15 6V5H9V6C9 6.55228 8.55228 7 8 7C7.44772 7 7 6.55228 7 6V5H5C4.44772 5 4 5.44772 4 6V8H20V6Z" fill="#34404D"/>
</svg>
