<svg width="20" height="24" viewBox="0 0 20 24" fill="none" xmlns="http://www.w3.org/2000/svg">
<path fill-rule="evenodd" clip-rule="evenodd" d="M13 1.5V7H18.5L13 1.5ZM0 2C0 0.89 0.89 0 2 0H14L20 6V22C20 22.5304 19.7893 23.0391 19.4142 23.4142C19.0391 23.7893 18.5304 24 18 24H2C1.46957 24 0.960859 23.7893 0.585786 23.4142C0.210714 23.0391 0 22.5304 0 22V2ZM5.43555 15.4499H6.5792L7.88555 18.0004H9.42637V17.9334L7.91904 15.0862C8.33695 14.898 8.64798 14.646 8.85215 14.3302C9.05951 14.0112 9.16318 13.614 9.16318 13.1387C9.16318 12.4688 8.93988 11.9504 8.49326 11.5835C8.04665 11.2166 7.41182 11.0332 6.58877 11.0332H4V18.0004H5.43555V15.4499ZM6.59355 14.2871H5.43555V12.196H6.58877C6.97477 12.196 7.26029 12.2901 7.44531 12.4783C7.63353 12.6665 7.72764 12.9249 7.72764 13.2535C7.72764 13.5757 7.62874 13.8293 7.43096 14.0144C7.23317 14.1962 6.95404 14.2871 6.59355 14.2871ZM14.3491 11.0332L13.0428 13.4354L11.7364 11.0332H10.0855L12.1145 14.4881L10.0329 18.0004H11.7029L13.0428 15.56L14.3826 18.0004H16.0526L13.9711 14.4881L16 11.0332H14.3491Z" fill="#B9C2CC"/>
</svg>
